#!OML:ASF I:\Random Stuff\random\construction\7_22_03\Session 2\subj1.ASF
:FULLY-SPECIFIED
:DEGREES
523
root -10.0174 17.7263 -6.16125 -183.085 102.374 -199.918
lowerback 14.842 1.71835 -3.1729
upperback 3.63626 1.81115 -2.66796
thorax -4.46779 0.983069 -1.3533
lowerneck -15.2409 3.76277 3.66038
upperneck 41.6052 7.7876 -2.25302
head 18.4767 3.84696 -0.0347706
rclavicle 1.03368e-014 0
rhumerus -30.4143 34.7686 -96.6431
rradius 75.3069
rwrist -4.57122
rhand -45.82 36.246
rfingers 7.12502
rthumb -18.5726 7.11261
lclavicle 1.03368e-014 0
lhumerus 3.79442 -28.9369 80.4174
lradius 45.4422
lwrist -15.9352
lhand -20.8986 52.4348
lfingers 7.12502
lthumb 5.47225 82.3442
rfemur -19.7088 5.45635 14.6982
rtibia 3.05508
rfoot 1.88897 -8.60718
rtoes -24.1643
lfemur -30.3019 -3.53495 -9.31206
ltibia 26.5322
lfoot -14.7575 12.3932
ltoes -25.9154
524
root -10.016 17.7267 -6.16167 -183.239 102.309 -200.071
lowerback 14.8446 1.71338 -3.01612
upperback 3.64401 1.82604 -2.73791
thorax -4.45423 0.989461 -1.51795
lowerneck -15.2088 3.72218 3.69153
upperneck 41.6606 7.69932 -2.18256
head 18.4937 3.8291 -0.0245634
rclavicle -1.98785e-014 -1.74931e-014
rhumerus -30.8609 34.603 -96.9067
rradius 76.2586
rwrist -4.10168
rhand -46.5064 37.6078
rfingers 7.12502
rthumb -19.2327 8.5388
lclavicle -1.98785e-014 -1.74931e-014
lhumerus 3.82309 -29.127 80.3163
lradius 45.5167
lwrist -15.8942
lhand -20.7906 52.4014
lfingers 7.12502
lthumb 5.57655 82.308
rfemur -19.8082 5.39728 14.7312
rtibia 3.31615
rfoot 1.73311 -8.65764
rtoes -23.6878
lfemur -30.3098 -3.59895 -9.28356
ltibia 26.5199
lfoot -14.7212 12.3897
ltoes -25.9926
525
root -10.015 17.727 -6.16237 -183.25 102.223 -200.062
lowerback 14.8742 1.69016 -2.96297
upperback 3.66067 1.80282 -2.76262
thorax -4.45035 0.978124 -1.57031
lowerneck -15.1594 3.72778 3.72215
upperneck 41.6735 7.71151 -2.19393
head 18.4913 3.83911 -0.0340104
rclavicle -6.36111e-015 4.77083e-015
rhumerus -31.2485 34.4937 -97.0605
rradius 77.2542
rwrist -3.68435
rhand -47.081 38.8296
rfingers 7.12502
rthumb -19.7851 9.8166
lclavicle -6.36111e-015 4.77083e-015
lhumerus 3.81445 -29.1488 80.294
lradius 45.5851
lwrist -15.9593
lhand -20.8294 52.3867
lfingers 7.12502
lthumb 5.53909 82.2943
rfemur -19.8504 5.3183 14.7257
rtibia 3.48962
rfoot 1.68587 -8.66986
rtoes -23.477
lfemur -30.3143 -3.63901 -9.31308
ltibia 26.5145
lfoot -14.6691 12.3546
ltoes -26.1814
526
root -10.0143 17.726 -6.16164 -183.31 102.199 -200.119
lowerback 14.8735 1.69929 -2.96136
upperback 3.67734 1.8173 -2.73726
thorax -4.43307 0.985218 -1.54669
lowerneck -15.1457 3.71017 3.71139
upperneck 41.6986 7.70913 -2.2235
head 18.5044 3.83371 -0.0461866
rclavicle 2.70347e-014 -5.24792e-014
rhumerus -31.5769 34.3898 -97.145
rradius 78.0795
rwrist -3.22042
rhand -47.773 39.8635
rfingers 7.12502
rthumb -20.4503 10.9204
lclavicle 2.70347e-014 -5.24792e-014
lhumerus 3.85243 -29.0769 80.3973
lradius 45.5525
lwrist -16.0724
lhand -21.1526 52.0627
lfingers 7.12502
lthumb 5.22699 81.9782
rfemur -19.9989 5.30353 14.7473
rtibia 3.80451
rfoot 1.58937 -8.70128
rtoes -23.8513
lfemur -30.304 -3.63276 -9.31188
ltibia 26.4893
lfoot -14.6694 12.3274
ltoes -26.0907
527
root -10.0142 17.726 -6.16044 -183.385 102.202 -200.226
lowerback 14.821 1.70928 -3.00265
upperback 3.70345 1.83089 -2.66853
thorax -4.38053 0.991754 -1.45086
lowerneck -15.1865 3.68208 3.60165
upperneck 41.6808 7.71043 -2.25562
head 18.5006 3.81131 -0.0407713
rclavicle -2.22639e-014 5.96354e-014
rhumerus -31.8151 34.3665 -97.1981
rradius 78.5766
rwrist -2.62249
rhand -48.4383 40.9133
rfingers 7.12502
rthumb -21.0895 12.0402
lclavicle -2.22639e-014 5.96354e-014
lhumerus 3.91254 -29.0114 80.52
lradius 45.4813
lwrist -15.8671
lhand -21.4867 51.7819
lfingers 7.12502
lthumb 4.9044 81.7051
rfemur -20.1658 5.31104 14.775
rtibia 4.0931
rfoot 1.41806 -8.75671
rtoes -23.9615
lfemur -30.3218 -3.65643 -9.27574
ltibia 26.4639
lfoot -14.664 12.376
ltoes -26.0113
528
root -10.015 17.7286 -6.1604 -183.301 102.117 -200.15
lowerback 14.8125 1.67863 -3.07782
upperback 3.74241 1.78532 -2.60649
thorax -4.33892 0.969983 -1.33348
lowerneck -15.2501 3.68385 3.48371
upperneck 41.6452 7.75166 -2.28005
head 18.4933 3.80288 -0.0221198
rclavicle 1.43125e-014 1.59028e-015
rhumerus -31.9117 34.3973 -97.227
rradius 78.6927
rwrist -1.99499
rhand -49.052 42.267
rfingers 7.12502
rthumb -21.6789 13.4608
lclavicle 1.43125e-014 1.59028e-015
lhumerus 3.96173 -29.0054 80.5795
lradius 45.4228
lwrist -15.3731
lhand -21.6576 51.7593
lfingers 7.12502
lthumb 4.73936 81.6863
rfemur -20.1654 5.22914 14.748
rtibia 4.13797
rfoot 1.3241 -8.79115
rtoes -23.7074
lfemur -30.3665 -3.74564 -9.29836
ltibia 26.4783
lfoot -14.6478 12.3849
ltoes -26.0347
